<svg width="29" height="25" viewBox="0 0 29 25" fill="none" xmlns="http://www.w3.org/2000/svg">
<path d="M2.37036 2.29034H4.43258C5.71258 2.29034 6.71999 3.25034 6.61332 4.35486L5.62962 14.6362C5.59121 15.0345 5.64821 15.4354 5.79701 15.8135C5.94581 16.1916 6.18316 16.5387 6.49402 16.8327C6.80489 17.1268 7.18249 17.3614 7.6029 17.5217C8.02331 17.682 8.47736 17.7644 8.93629 17.7639H21.5585C23.2652 17.7639 24.7585 16.5458 24.8889 15.0697L25.5289 7.32776C25.6711 5.61422 24.1778 4.22067 22.1985 4.22067H6.89777M10.6667 8.48389H24.8889M19.2593 22.9355C19.6522 22.9355 20.029 22.7996 20.3068 22.5576C20.5846 22.3156 20.7407 21.9874 20.7407 21.6452C20.7407 21.303 20.5846 20.9748 20.3068 20.7328C20.029 20.4908 19.6522 20.3549 19.2593 20.3549C18.8663 20.3549 18.4895 20.4908 18.2117 20.7328C17.9339 20.9748 17.7778 21.303 17.7778 21.6452C17.7778 21.9874 17.9339 22.3156 18.2117 22.5576C18.4895 22.7996 18.8663 22.9355 19.2593 22.9355ZM9.77777 22.9355C10.1707 22.9355 10.5475 22.7996 10.8253 22.5576C11.1032 22.3156 11.2593 21.9874 11.2593 21.6452C11.2593 21.303 11.1032 20.9748 10.8253 20.7328C10.5475 20.4908 10.1707 20.3549 9.77777 20.3549C9.38486 20.3549 9.00803 20.4908 8.7302 20.7328C8.45237 20.9748 8.29629 21.303 8.29629 21.6452C8.29629 21.9874 8.45237 22.3156 8.7302 22.5576C9.00803 22.7996 9.38486 22.9355 9.77777 22.9355Z" stroke="#BEBDBD" stroke-width="2" stroke-miterlimit="10" stroke-linecap="round" stroke-linejoin="round"/>
</svg>
