<svg width="256" height="256" viewBox="0 0 256 256" fill="none" xmlns="http://www.w3.org/2000/svg">
<rect width="256" height="256" fill="#D9D9D9"/>
<path d="M79.3333 152.333L107.231 124.435C109.513 122.154 112.607 120.873 115.833 120.873C119.059 120.873 122.154 122.154 124.435 124.435L152.333 152.333M140.167 140.167L149.815 130.519C152.096 128.238 155.19 126.956 158.417 126.956C161.643 126.956 164.737 128.238 167.018 130.519L176.667 140.167M140.167 103.667H140.227M91.5 176.667H164.5C167.727 176.667 170.821 175.385 173.103 173.103C175.385 170.821 176.667 167.727 176.667 164.5V91.5C176.667 88.2732 175.385 85.1786 173.103 82.8969C170.821 80.6152 167.727 79.3333 164.5 79.3333H91.5C88.2732 79.3333 85.1785 80.6152 82.8968 82.8969C80.6152 85.1786 79.3333 88.2732 79.3333 91.5V164.5C79.3333 167.727 80.6152 170.821 82.8968 173.103C85.1785 175.385 88.2732 176.667 91.5 176.667Z" stroke="black" stroke-opacity="0.33" stroke-width="8" stroke-linecap="round" stroke-linejoin="round"/>
<path d="M161 64L193 96M161 96L193 64L161 96Z" stroke="white" stroke-width="8" stroke-linecap="round" stroke-linejoin="round"/>
</svg>
